REM DIRINDEX 1\2\4\18,1\2\4\19,1\2\5\20,1\2\5\21,1\2\6\22,1\2\7\23,1\2\8\24,1\2\8\25,1\2\9\26,1\2\10\27,1\3\11\28,1\3\11\29,1\3\11\30,1\3\11\31,1\3\12\32,1\3\12\33,1\3\12\34,1\3\12\35,1\3\13\36,1\3\13\37,1\3\14\38,1\3\14\39,1\3\15\40,1\3\15\41,1\3\15\42,1\3\16\43,1\3\16\44,1\3\17\45,1\3\17\46
REM DIRNAME folder01,folder02,folder03,folder04,folder05,folder06,folder07,folder08,folder09,folder10,folder11,folder12,folder13,folder14,folder15,folder16,folder17,folder18,folder19,folder20,folder21,folder22,folder23,folder24,folder25,folder26,folder27,folder28,folder29,folder30,folder31,folder32,folder33,folder34,folder35,folder36,folder37,folder38,folder39,folder40,folder41,folder42,folder43,folder44,folder45,folder46
TITLE ""
FILE "14.mp3" MP3
  TRACK 01 AUDIO
    TITLE "0:"
    INDEX 01 00:00:00
  TRACK 02 AUDIO
    TITLE "24:cjc023_2167"
    INDEX 01 00:00:13
  TRACK 03 AUDIO
    TITLE "0:"
    INDEX 01 00:01:30
  TRACK 04 AUDIO
    TITLE "25:cjc023_2168"
    INDEX 01 00:02:04
  TRACK 05 AUDIO
    TITLE "0:"
    INDEX 01 00:04:15
  TRACK 06 AUDIO
    TITLE "25:cjc023_2169"
    INDEX 01 00:04:66
  TRACK 07 AUDIO
    TITLE "0:"
    INDEX 01 00:08:54
  TRACK 08 AUDIO
    TITLE "24:cjc023_2170"
    INDEX 01 00:09:49
  TRACK 09 AUDIO
    TITLE "0:"
    INDEX 01 00:10:61
  TRACK 10 AUDIO
    TITLE "25:cjc023_2171"
    INDEX 01 00:11:35
  TRACK 11 AUDIO
    TITLE "0:"
    INDEX 01 00:13:18
  TRACK 12 AUDIO
    TITLE "25:cjc023_2172"
    INDEX 01 00:13:65
  TRACK 13 AUDIO
    TITLE "0:"
    INDEX 01 00:16:55
  TRACK 14 AUDIO
    TITLE "24:cjc023_2173"
    INDEX 01 00:17:53
  TRACK 15 AUDIO
    TITLE "0:"
    INDEX 01 00:18:70
  TRACK 16 AUDIO
    TITLE "25:cjc023_2174"
    INDEX 01 00:19:42
  TRACK 17 AUDIO
    TITLE "0:"
    INDEX 01 00:21:25
  TRACK 18 AUDIO
    TITLE "25:cjc023_2175"
    INDEX 01 00:21:74
  TRACK 19 AUDIO
    TITLE "0:"
    INDEX 01 00:23:69
  TRACK 20 AUDIO
    TITLE "25:cjc023_2176"
    INDEX 01 00:24:41
  TRACK 21 AUDIO
    TITLE "0:"
    INDEX 01 00:27:06
  TRACK 22 AUDIO
    TITLE "25:cjc023_2177"
    INDEX 01 00:27:53
  TRACK 23 AUDIO
    TITLE "0:"
    INDEX 01 00:29:48
  TRACK 24 AUDIO
    TITLE "25:cjc023_2178"
    INDEX 01 00:30:22
  TRACK 25 AUDIO
    TITLE "0:"
    INDEX 01 00:32:27
  TRACK 26 AUDIO
    TITLE "24:cjc023_2179"
    INDEX 01 00:33:34
  TRACK 27 AUDIO
    TITLE "0:"
    INDEX 01 00:34:55
  TRACK 28 AUDIO
    TITLE "25:cjc023_2180"
    INDEX 01 00:35:27
  TRACK 29 AUDIO
    TITLE "0:"
    INDEX 01 00:38:00
  TRACK 30 AUDIO
    TITLE "25:cjc023_2181"
    INDEX 01 00:38:45
  TRACK 31 AUDIO
    TITLE "0:"
    INDEX 01 00:40:42
  TRACK 32 AUDIO
    TITLE "25:cjc023_2182"
    INDEX 01 00:41:18
  TRACK 33 AUDIO
    TITLE "0:"
    INDEX 01 00:43:19
  TRACK 34 AUDIO
    TITLE "24:cjc023_2183"
    INDEX 01 00:44:14
  TRACK 35 AUDIO
    TITLE "0:"
    INDEX 01 00:45:24
  TRACK 36 AUDIO
    TITLE "25:cjc023_2184"
    INDEX 01 00:45:73
  TRACK 37 AUDIO
    TITLE "0:"
    INDEX 01 00:47:60
  TRACK 38 AUDIO
    TITLE "25:cjc023_2185"
    INDEX 01 00:48:38
  TRACK 39 AUDIO
    TITLE "0:"
    INDEX 01 00:50:58
  TRACK 40 AUDIO
    TITLE "25:cjc023_2186"
    INDEX 01 00:51:28
  TRACK 41 AUDIO
    TITLE "0:"
    INDEX 01 00:53:72
  TRACK 42 AUDIO
    TITLE "24:cjc023_2187"
    INDEX 01 00:54:68
  TRACK 43 AUDIO
    TITLE "0:"
    INDEX 01 00:56:10
  TRACK 44 AUDIO
    TITLE "25:cjc023_2188"
    INDEX 01 00:56:53
  TRACK 45 AUDIO
    TITLE "0:"
    INDEX 01 00:58:36
  TRACK 46 AUDIO
    TITLE "25:cjc023_2189"
    INDEX 01 00:59:08
  TRACK 47 AUDIO
    TITLE "0:"
    INDEX 01 01:01:58
  TRACK 48 AUDIO
    TITLE "24:cjc023_2190"
    INDEX 01 01:02:55
  TRACK 49 AUDIO
    TITLE "0:"
    INDEX 01 01:03:67
  TRACK 50 AUDIO
    TITLE "25:cjc023_2191"
    INDEX 01 01:04:33
  TRACK 51 AUDIO
    TITLE "0:"
    INDEX 01 01:06:16
  TRACK 52 AUDIO
    TITLE "25:cjc023_2192"
    INDEX 01 01:06:63
  TRACK 53 AUDIO
    TITLE "0:"
    INDEX 01 01:08:54
  TRACK 54 AUDIO
    TITLE "24:cjc023_2193"
    INDEX 01 01:09:54
  TRACK 55 AUDIO
    TITLE "0:"
    INDEX 01 01:10:55
  TRACK 56 AUDIO
    TITLE "25:cjc023_2194"
    INDEX 01 01:11:25
  TRACK 57 AUDIO
    TITLE "0:"
    INDEX 01 01:13:22
  TRACK 58 AUDIO
    TITLE "24:cjc023_2195"
    INDEX 01 01:14:17
  TRACK 59 AUDIO
    TITLE "0:"
    INDEX 01 01:15:15
  TRACK 60 AUDIO
    TITLE "25:cjc023_2196"
    INDEX 01 01:15:62
  TRACK 61 AUDIO
    TITLE "0:"
    INDEX 01 01:18:39
  TRACK 62 AUDIO
    TITLE "25:cjc023_2197"
    INDEX 01 01:19:13
  TRACK 63 AUDIO
    TITLE "0:"
    INDEX 01 01:21:45
  TRACK 64 AUDIO
    TITLE "24:cjc023_2198"
    INDEX 01 01:22:42
  TRACK 65 AUDIO
    TITLE "0:"
    INDEX 01 01:23:34
  TRACK 66 AUDIO
    TITLE "25:cjc023_2199"
    INDEX 01 01:24:04
  TRACK 67 AUDIO
    TITLE "0:"
    INDEX 01 01:25:21
  TRACK 68 AUDIO
    TITLE "24:cjc023_2200"
    INDEX 01 01:26:23
  TRACK 69 AUDIO
    TITLE "0:"
    INDEX 01 01:27:24
  TRACK 70 AUDIO
    TITLE "25:cjc023_2201"
    INDEX 01 01:27:71
  TRACK 71 AUDIO
    TITLE "0:"
    INDEX 01 01:30:24
  TRACK 72 AUDIO
    TITLE "25:cjc023_2202"
    INDEX 01 01:30:73
  TRACK 73 AUDIO
    TITLE "0:"
    INDEX 01 01:33:52
  TRACK 74 AUDIO
    TITLE "25:cjc023_2203"
    INDEX 01 01:34:22
  TRACK 75 AUDIO
    TITLE "0:"
    INDEX 01 01:36:21
  TRACK 76 AUDIO
    TITLE "24:cjc023_2204"
    INDEX 01 01:37:21
  TRACK 77 AUDIO
    TITLE "0:"
    INDEX 01 01:38:30
  TRACK 78 AUDIO
    TITLE "25:cjc023_2205"
    INDEX 01 01:39:06
  TRACK 79 AUDIO
    TITLE "0:"
    INDEX 01 01:40:72
  TRACK 80 AUDIO
    TITLE "24:cjc023_2206"
    INDEX 01 01:41:69
  TRACK 81 AUDIO
    TITLE "0:"
    INDEX 01 01:43:03
  TRACK 82 AUDIO
    TITLE "25:cjc023_2207"
    INDEX 01 01:43:52
  TRACK 83 AUDIO
    TITLE "0:"
    INDEX 01 01:46:04
  TRACK 84 AUDIO
    TITLE "25:cjc023_2208"
    INDEX 01 01:46:51
  TRACK 85 AUDIO
    TITLE "0:"
    INDEX 01 01:49:12
  TRACK 86 AUDIO
    TITLE "25:cjc023_2209"
    INDEX 01 01:49:61
  TRACK 87 AUDIO
    TITLE "0:"
    INDEX 01 01:52:30
  TRACK 88 AUDIO
    TITLE "25:cjc023_2210"
    INDEX 01 01:53:02
  TRACK 89 AUDIO
    TITLE "0:"
    INDEX 01 01:54:48
  TRACK 90 AUDIO
    TITLE "24:cjc023_2211"
    INDEX 01 01:55:48
  TRACK 91 AUDIO
    TITLE "0:"
    INDEX 01 01:57:15
  TRACK 92 AUDIO
    TITLE "25:cjc023_2212"
    INDEX 01 01:57:62
  TRACK 93 AUDIO
    TITLE "0:"
    INDEX 01 01:59:55
  TRACK 94 AUDIO
    TITLE "25:cjc023_2213"
    INDEX 01 02:00:25
  TRACK 95 AUDIO
    TITLE "0:"
    INDEX 01 02:03:38
  TRACK 96 AUDIO
    TITLE "24:cjc023_2214"
    INDEX 01 02:04:35
  TRACK 97 AUDIO
    TITLE "0:"
    INDEX 01 02:05:42
  TRACK 98 AUDIO
    TITLE "25:cjc023_2215"
    INDEX 01 02:06:16
  TRACK 99 AUDIO
    TITLE "0:"
    INDEX 01 02:08:39
  TRACK 100 AUDIO
    TITLE "24:cjc023_2216"
    INDEX 01 02:09:40
  TRACK 101 AUDIO
    TITLE "0:"
    INDEX 01 02:10:42
  TRACK 102 AUDIO
    TITLE "25:cjc023_2217"
    INDEX 01 02:11:21
  TRACK 103 AUDIO
    TITLE "0:"
    INDEX 01 02:13:69
  TRACK 104 AUDIO
    TITLE "25:cjc023_2218"
    INDEX 01 02:14:43
  TRACK 105 AUDIO
    TITLE "0:"
    INDEX 01 02:16:66
  TRACK 106 AUDIO
    TITLE "25:cjc023_2219"
    INDEX 01 02:17:38
  TRACK 107 AUDIO
    TITLE "0:"
    INDEX 01 02:19:60
  TRACK 108 AUDIO
    TITLE "24:cjc023_2220"
    INDEX 01 02:20:56
  TRACK 109 AUDIO
    TITLE "0:"
    INDEX 01 02:21:67
  TRACK 110 AUDIO
    TITLE "25:cjc023_2221"
    INDEX 01 02:22:39
  TRACK 111 AUDIO
    TITLE "0:"
    INDEX 01 02:25:57
  TRACK 112 AUDIO
    TITLE "25:cjc023_2222"
    INDEX 01 02:26:31
  TRACK 113 AUDIO
    TITLE "0:"
    INDEX 01 02:28:39
  TRACK 114 AUDIO
    TITLE "24:cjc023_2223"
    INDEX 01 02:29:41
  TRACK 115 AUDIO
    TITLE "0:"
    INDEX 01 02:30:58
  TRACK 116 AUDIO
    TITLE "25:cjc023_2224"
    INDEX 01 02:31:28
  TRACK 117 AUDIO
    TITLE "0:"
    INDEX 01 02:33:25
  TRACK 118 AUDIO
    TITLE "25:cjc023_2225"
    INDEX 01 02:33:70
  TRACK 119 AUDIO
    TITLE "0:"
    INDEX 01 02:36:06
  TRACK 120 AUDIO
    TITLE "24:cjc023_2226"
    INDEX 01 02:37:03
  TRACK 121 AUDIO
    TITLE "0:"
    INDEX 01 02:38:22
  TRACK 122 AUDIO
    TITLE "25:cjc023_2227"
    INDEX 01 02:38:67
  TRACK 123 AUDIO
    TITLE "0:"
    INDEX 01 02:40:66
  TRACK 124 AUDIO
    TITLE "25:cjc023_2228"
    INDEX 01 02:41:38
  TRACK 125 AUDIO
    TITLE "0:"
    INDEX 01 02:43:33
  TRACK 126 AUDIO
    TITLE "24:cjc023_2229"
    INDEX 01 02:44:33
  TRACK 127 AUDIO
    TITLE "0:"
    INDEX 01 02:45:30
  TRACK 128 AUDIO
    TITLE "25:cjc023_2230"
    INDEX 01 02:46:06
  TRACK 129 AUDIO
    TITLE "0:"
    INDEX 01 02:47:51
  TRACK 130 AUDIO
    TITLE "25:cjc023_2231"
    INDEX 01 02:48:21
  TRACK 131 AUDIO
    TITLE "0:"
    INDEX 01 02:49:69
  TRACK 132 AUDIO
    TITLE "24:cjc023_2232"
    INDEX 01 02:50:68
  TRACK 133 AUDIO
    TITLE "0:"
    INDEX 01 02:52:18
  TRACK 134 AUDIO
    TITLE "25:cjc023_2233"
    INDEX 01 02:52:63
  TRACK 135 AUDIO
    TITLE "0:"
    INDEX 01 02:55:42
  TRACK 136 AUDIO
    TITLE "25:cjc023_2234"
    INDEX 01 02:56:14
  TRACK 137 AUDIO
    TITLE "0:"
    INDEX 01 02:59:42
  TRACK 138 AUDIO
    TITLE "24:cjc023_2235"
    INDEX 01 03:00:45
  TRACK 139 AUDIO
    TITLE "0:"
    INDEX 01 03:01:66
  TRACK 140 AUDIO
    TITLE "25:cjc023_2236"
    INDEX 01 03:02:38
  TRACK 141 AUDIO
    TITLE "0:"
    INDEX 01 03:04:43
  TRACK 142 AUDIO
    TITLE "25:cjc023_2237"
    INDEX 01 03:05:15
  TRACK 143 AUDIO
    TITLE "0:"
    INDEX 01 03:07:43
  TRACK 144 AUDIO
    TITLE "25:cjc023_2238"
    INDEX 01 03:08:17
  TRACK 145 AUDIO
    TITLE "0:"
    INDEX 01 03:10:28
  TRACK 146 AUDIO
    TITLE "25:cjc023_2239"
    INDEX 01 03:10:73
  TRACK 147 AUDIO
    TITLE "0:"
    INDEX 01 03:14:00
  TRACK 148 AUDIO
    TITLE "24:cjc023_2240"
    INDEX 01 03:14:71
  TRACK 149 AUDIO
    TITLE "0:"
    INDEX 01 03:16:09
  TRACK 150 AUDIO
    TITLE "25:cjc023_2241"
    INDEX 01 03:16:58
  TRACK 151 AUDIO
    TITLE "0:"
    INDEX 01 03:18:73
  TRACK 152 AUDIO
    TITLE "25:cjc023_2242"
    INDEX 01 03:19:45
  TRACK 153 AUDIO
    TITLE "0:"
    INDEX 01 03:22:10
  TRACK 154 AUDIO
    TITLE "25:cjc023_2243"
    INDEX 01 03:22:55
  TRACK 155 AUDIO
    TITLE "0:"
    INDEX 01 03:24:48
  TRACK 156 AUDIO
    TITLE "24:cjc023_2244"
    INDEX 01 03:25:45
  TRACK 157 AUDIO
    TITLE "0:"
    INDEX 01 03:26:45
  TRACK 158 AUDIO
    TITLE "25:cjc023_2245"
    INDEX 01 03:27:15
  TRACK 159 AUDIO
    TITLE "0:"
    INDEX 01 03:29:10
  TRACK 160 AUDIO
    TITLE "25:cjc023_2246"
    INDEX 01 03:29:55
  TRACK 161 AUDIO
    TITLE "0:"
    INDEX 01 03:31:30
  TRACK 162 AUDIO
    TITLE "24:cjc023_2247"
    INDEX 01 03:32:30
  TRACK 163 AUDIO
    TITLE "0:"
    INDEX 01 03:33:37
  TRACK 164 AUDIO
    TITLE "25:cjc023_2248"
    INDEX 01 03:34:07
  TRACK 165 AUDIO
    TITLE "0:"
    INDEX 01 03:35:36
  TRACK 166 AUDIO
    TITLE "25:cjc023_2249"
    INDEX 01 03:36:08
  TRACK 167 AUDIO
    TITLE "0:"
    INDEX 01 03:37:52
  TRACK 168 AUDIO
    TITLE "25:cjc023_2250"
    INDEX 01 03:38:26
  TRACK 169 AUDIO
    TITLE "0:"
    INDEX 01 03:41:34
  TRACK 170 AUDIO
    TITLE "25:cjc023_2251"
    INDEX 01 03:42:08
  TRACK 171 AUDIO
    TITLE "0:"
    INDEX 01 03:43:63
  TRACK 172 AUDIO
    TITLE "25:cjc023_2252"
    INDEX 01 03:44:35
  TRACK 173 AUDIO
    TITLE "0:"
    INDEX 01 03:47:27
  TRACK 174 AUDIO
    TITLE "24:cjc023_2253"
    INDEX 01 03:48:29
  TRACK 175 AUDIO
    TITLE "0:"
    INDEX 01 03:49:36
  TRACK 176 AUDIO
    TITLE "25:cjc023_2254"
    INDEX 01 03:50:06
  TRACK 177 AUDIO
    TITLE "0:"
    INDEX 01 03:51:64
  TRACK 178 AUDIO
    TITLE "25:cjc023_2255"
    INDEX 01 03:52:38
  TRACK 179 AUDIO
    TITLE "0:"
    INDEX 01 03:54:65
  TRACK 180 AUDIO
    TITLE "24:cjc023_2256"
    INDEX 01 03:55:60
  TRACK 181 AUDIO
    TITLE "0:"
    INDEX 01 03:57:12
  TRACK 182 AUDIO
    TITLE "25:cjc023_2257"
    INDEX 01 03:57:57
  TRACK 183 AUDIO
    TITLE "0:"
    INDEX 01 04:00:00
  TRACK 184 AUDIO
    TITLE "25:cjc023_2258"
    INDEX 01 04:00:48
  TRACK 185 AUDIO
    TITLE "0:"
    INDEX 01 04:02:37
  TRACK 186 AUDIO
    TITLE "25:cjc023_2259"
    INDEX 01 04:03:09
  TRACK 187 AUDIO
    TITLE "0:"
    INDEX 01 04:05:25
  TRACK 188 AUDIO
    TITLE "24:cjc023_2260"
    INDEX 01 04:06:23
  TRACK 189 AUDIO
    TITLE "0:"
    INDEX 01 04:07:48
  TRACK 190 AUDIO
    TITLE "25:cjc023_2261"
    INDEX 01 04:08:20
  TRACK 191 AUDIO
    TITLE "0:"
    INDEX 01 04:10:18
  TRACK 192 AUDIO
    TITLE "25:cjc023_2262"
    INDEX 01 04:10:66
  TRACK 193 AUDIO
    TITLE "0:"
    INDEX 01 04:12:66
  TRACK 194 AUDIO
    TITLE "25:cjc023_2263"
    INDEX 01 04:13:38
  TRACK 195 AUDIO
    TITLE "0:"
    INDEX 01 04:16:58
  TRACK 196 AUDIO
    TITLE "25:cjc023_2264"
    INDEX 01 04:17:30
  TRACK 197 AUDIO
    TITLE "0:"
    INDEX 01 04:19:39
  TRACK 198 AUDIO
    TITLE "24:cjc023_2265"
    INDEX 01 04:20:38
  TRACK 199 AUDIO
    TITLE "0:"
    INDEX 01 04:21:42
  TRACK 200 AUDIO
    TITLE "25:cjc023_2266"
    INDEX 01 04:22:14
  TRACK 201 AUDIO
    TITLE "0:"
    INDEX 01 04:23:45
  TRACK 202 AUDIO
    TITLE "25:cjc023_2267"
    INDEX 01 04:24:24
  TRACK 203 AUDIO
    TITLE "0:"
    INDEX 01 04:26:00
  TRACK 204 AUDIO
    TITLE "24:cjc023_2268"
    INDEX 01 04:26:72
  TRACK 205 AUDIO
    TITLE "0:"
    INDEX 01 04:28:12
  TRACK 206 AUDIO
    TITLE "25:cjc023_2269"
    INDEX 01 04:28:60
  TRACK 207 AUDIO
    TITLE "0:"
    INDEX 01 04:30:60
  TRACK 208 AUDIO
    TITLE "25:cjc023_2270"
    INDEX 01 04:31:36
  TRACK 209 AUDIO
    TITLE "0:"
    INDEX 01 04:33:49
  TRACK 210 AUDIO
    TITLE "24:cjc023_2271"
    INDEX 01 04:34:52
  TRACK 211 AUDIO
    TITLE "0:"
    INDEX 01 04:35:60
  TRACK 212 AUDIO
    TITLE "25:cjc023_2272"
    INDEX 01 04:36:32
  TRACK 213 AUDIO
    TITLE "0:"
    INDEX 01 04:39:18
  TRACK 214 AUDIO
    TITLE "25:cjc023_2273"
    INDEX 01 04:39:65
  TRACK 215 AUDIO
    TITLE "0:"
    INDEX 01 04:43:57
  TRACK 216 AUDIO
    TITLE "25:cjc023_2274"
    INDEX 01 04:44:33
  TRACK 217 AUDIO
    TITLE "0:"
    INDEX 01 04:46:03
  TRACK 218 AUDIO
    TITLE "25:cjc023_2275"
    INDEX 01 04:46:48
  TRACK 219 AUDIO
    TITLE "0:"
    INDEX 01 04:48:60
  TRACK 220 AUDIO
    TITLE "24:cjc023_2276"
    INDEX 01 04:49:60
  TRACK 221 AUDIO
    TITLE "0:"
    INDEX 01 04:50:61
  TRACK 222 AUDIO
    TITLE "25:cjc023_2277"
    INDEX 01 04:51:33
  TRACK 223 AUDIO
    TITLE "0:"
    INDEX 01 04:53:18
  TRACK 224 AUDIO
    TITLE "25:cjc023_2278"
    INDEX 01 04:53:65
  TRACK 225 AUDIO
    TITLE "0:"
    INDEX 01 04:56:30
  TRACK 226 AUDIO
    TITLE "25:cjc023_2279"
    INDEX 01 04:57:02
  TRACK 227 AUDIO
    TITLE "0:"
    INDEX 01 04:58:51
  TRACK 228 AUDIO
    TITLE "24:cjc023_2280"
    INDEX 01 04:59:50
  TRACK 229 AUDIO
    TITLE "0:"
    INDEX 01 05:00:56
  TRACK 230 AUDIO
    TITLE "25:cjc023_2281"
    INDEX 01 05:01:28
  TRACK 231 AUDIO
    TITLE "0:"
    INDEX 01 05:03:27
  TRACK 232 AUDIO
    TITLE "24:cjc023_2282"
    INDEX 01 05:04:32
  TRACK 233 AUDIO
    TITLE "0:"
    INDEX 01 05:05:27
  TRACK 234 AUDIO
    TITLE "25:cjc023_2283"
    INDEX 01 05:06:03
  TRACK 235 AUDIO
    TITLE "0:"
    INDEX 01 05:08:30
  TRACK 236 AUDIO
    TITLE "25:cjc023_2284"
    INDEX 01 05:09:02
  TRACK 237 AUDIO
    TITLE "0:"
    INDEX 01 05:10:48
  TRACK 238 AUDIO
    TITLE "25:cjc023_2285"
    INDEX 01 05:11:18
  TRACK 239 AUDIO
    TITLE "0:"
    INDEX 01 05:13:21
  TRACK 240 AUDIO
    TITLE "24:cjc023_2286"
    INDEX 01 05:14:18
  TRACK 241 AUDIO
    TITLE "0:"
    INDEX 01 05:15:24
  TRACK 242 AUDIO
    TITLE "25:cjc023_2287"
    INDEX 01 05:15:67
  TRACK 243 AUDIO
    TITLE "0:"
    INDEX 01 05:17:66
  TRACK 244 AUDIO
    TITLE "25:cjc023_2288"
    INDEX 01 05:18:40
  TRACK 245 AUDIO
    TITLE "0:"
    INDEX 01 05:21:20
  TRACK 246 AUDIO
    TITLE "25:cjc023_2289"
    INDEX 01 05:21:68
  TRACK 247 AUDIO
    TITLE "0:"
    INDEX 01 05:24:25
  TRACK 248 AUDIO
    TITLE "25:cjc023_2290"
    INDEX 01 05:24:74
  TRACK 249 AUDIO
    TITLE "0:"
    INDEX 01 05:27:09
  TRACK 250 AUDIO
    TITLE "25:cjc023_2291"
    INDEX 01 05:27:54
  TRACK 251 AUDIO
    TITLE "0:"
    INDEX 01 05:30:57
  TRACK 252 AUDIO
    TITLE "24:cjc023_2292"
    INDEX 01 05:31:52
  TRACK 253 AUDIO
    TITLE "0:"
    INDEX 01 05:32:61
  TRACK 254 AUDIO
    TITLE "25:cjc023_2293"
    INDEX 01 05:33:33
  TRACK 255 AUDIO
    TITLE "0:"
    INDEX 01 05:36:46
  TRACK 256 AUDIO
    TITLE "24:cjc023_2294"
    INDEX 01 05:37:41
  TRACK 257 AUDIO
    TITLE "0:"
    INDEX 01 05:38:48
  TRACK 258 AUDIO
    TITLE "25:cjc023_2295"
    INDEX 01 05:39:20
  TRACK 259 AUDIO
    TITLE "0:"
    INDEX 01 05:41:06
  TRACK 260 AUDIO
    TITLE "25:cjc023_2296"
    INDEX 01 05:41:55
  TRACK 261 AUDIO
    TITLE "0:"
    INDEX 01 05:43:61
  TRACK 262 AUDIO
    TITLE "24:cjc023_2297"
    INDEX 01 05:44:61
  TRACK 263 AUDIO
    TITLE "0:"
    INDEX 01 05:46:01
  TRACK 264 AUDIO
    TITLE "25:cjc023_2298"
    INDEX 01 05:46:50
  TRACK 265 AUDIO
    TITLE "0:"
    INDEX 01 05:49:42
  TRACK 266 AUDIO
    TITLE "24:cjc023_2299"
    INDEX 01 05:50:40
  TRACK 267 AUDIO
    TITLE "0:"
    INDEX 01 05:51:51
  TRACK 268 AUDIO
    TITLE "25:cjc023_2300"
    INDEX 01 05:52:21
  TRACK 269 AUDIO
    TITLE "0:"
    INDEX 01 05:53:69
  TRACK 270 AUDIO
    TITLE "25:cjc023_2301"
    INDEX 01 05:54:43
  TRACK 271 AUDIO
    TITLE "0:"
    INDEX 01 05:56:15
  TRACK 272 AUDIO
    TITLE "25:cjc023_2302"
    INDEX 01 05:56:64
  TRACK 273 AUDIO
    TITLE "0:"
    INDEX 01 05:58:45
  TRACK 274 AUDIO
    TITLE "25:cjc023_2303"
    INDEX 01 05:59:17
  TRACK 275 AUDIO
    TITLE "0:"
    INDEX 01 06:01:00
  TRACK 276 AUDIO
    TITLE "24:cjc023_2304"
    INDEX 01 06:02:00
  TRACK 277 AUDIO
    TITLE "0:"
    INDEX 01 06:03:13
  TRACK 278 AUDIO
    TITLE "25:cjc023_2305"
    INDEX 01 06:03:60
  TRACK 279 AUDIO
    TITLE "0:"
    INDEX 01 06:06:04
  TRACK 280 AUDIO
    TITLE "25:cjc023_2306"
    INDEX 01 06:06:51
  TRACK 281 AUDIO
    TITLE "0:"
    INDEX 01 06:08:73
  TRACK 282 AUDIO
    TITLE "25:cjc023_2307"
    INDEX 01 06:09:45
  TRACK 283 AUDIO
    TITLE "0:"
    INDEX 01 06:12:63
  TRACK 284 AUDIO
    TITLE "24:cjc023_2308"
    INDEX 01 06:13:60
  TRACK 285 AUDIO
    TITLE "0:"
    INDEX 01 06:14:66
  TRACK 286 AUDIO
    TITLE "25:cjc023_2309"
    INDEX 01 06:15:36
  TRACK 287 AUDIO
    TITLE "0:"
    INDEX 01 06:17:25
  TRACK 288 AUDIO
    TITLE "25:cjc023_2310"
    INDEX 01 06:17:72
  TRACK 289 AUDIO
    TITLE "0:"
    INDEX 01 06:19:57
  TRACK 290 AUDIO
    TITLE "25:cjc023_2311"
    INDEX 01 06:20:29
  TRACK 291 AUDIO
    TITLE "0:"
    INDEX 01 06:23:27
  TRACK 292 AUDIO
    TITLE "24:cjc023_2312"
    INDEX 01 06:24:25
  TRACK 293 AUDIO
    TITLE "0:"
    INDEX 01 06:25:34
  TRACK 294 AUDIO
    TITLE "25:cjc023_2313"
    INDEX 01 06:26:06
  TRACK 295 AUDIO
    TITLE "0:"
    INDEX 01 06:27:59
  TRACK 296 AUDIO
    TITLE "25:cjc023_2314"
    INDEX 01 06:28:31
  TRACK 297 AUDIO
    TITLE "0:"
    INDEX 01 06:30:00
  TRACK 298 AUDIO
    TITLE "25:cjc023_2315"
    INDEX 01 06:30:45
  TRACK 299 AUDIO
    TITLE "0:"
    INDEX 01 06:33:06
  TRACK 300 AUDIO
    TITLE "25:cjc023_2316"
    INDEX 01 06:33:53
  TRACK 301 AUDIO
    TITLE "0:"
    INDEX 01 06:36:12
  TRACK 302 AUDIO
    TITLE "24:cjc023_2317"
    INDEX 01 06:37:10
  TRACK 303 AUDIO
    TITLE "0:"
    INDEX 01 06:38:15
  TRACK 304 AUDIO
    TITLE "25:cjc023_2318"
    INDEX 01 06:38:62
  TRACK 305 AUDIO
    TITLE "0:"
    INDEX 01 06:40:57
  TRACK 306 AUDIO
    TITLE "25:cjc023_2319"
    INDEX 01 06:41:33
  TRACK 307 AUDIO
    TITLE "0:"
    INDEX 01 06:44:00
  TRACK 308 AUDIO
    TITLE "25:cjc023_2320"
    INDEX 01 06:44:45
  TRACK 309 AUDIO
    TITLE "0:"
    INDEX 01 06:46:07
  TRACK 310 AUDIO
    TITLE "24:cjc023_2321"
    INDEX 01 06:47:03
  TRACK 311 AUDIO
    TITLE "0:"
    INDEX 01 06:48:06
  TRACK 312 AUDIO
    TITLE "25:cjc023_2322"
    INDEX 01 06:48:51
  TRACK 313 AUDIO
    TITLE "0:"
    INDEX 01 06:51:32
  TRACK 314 AUDIO
    TITLE "25:cjc023_2323"
    INDEX 01 06:52:10
  TRACK 315 AUDIO
    TITLE "0:"
    INDEX 01 06:55:00
  TRACK 316 AUDIO
    TITLE "25:cjc023_2324"
    INDEX 01 06:55:45
  TRACK 317 AUDIO
    TITLE "0:"
    INDEX 01 06:56:72
  TRACK 318 AUDIO
    TITLE "25:cjc023_2325"
    INDEX 01 06:57:46
  TRACK 319 AUDIO
    TITLE "0:"
    INDEX 01 07:00:31
  TRACK 320 AUDIO
    TITLE "24:cjc023_2326"
    INDEX 01 07:01:26
  TRACK 321 AUDIO
    TITLE "0:"
    INDEX 01 07:02:28
  TRACK 322 AUDIO
    TITLE "25:cjc023_2327"
    INDEX 01 07:03:02
  TRACK 323 AUDIO
    TITLE "0:"
    INDEX 01 07:06:39
  TRACK 324 AUDIO
    TITLE "25:cjc023_2328"
    INDEX 01 07:07:11
  TRACK 325 AUDIO
    TITLE "0:"
    INDEX 01 07:08:46
  TRACK 326 AUDIO
    TITLE "24:cjc023_2329"
    INDEX 01 07:09:41
  TRACK 327 AUDIO
    TITLE "0:"
    INDEX 01 07:10:39
  TRACK 328 AUDIO
    TITLE "25:cjc023_2330"
    INDEX 01 07:11:11
  TRACK 329 AUDIO
    TITLE "0:"
    INDEX 01 07:12:63
  TRACK 330 AUDIO
    TITLE "25:cjc023_2331"
    INDEX 01 07:13:37
  TRACK 331 AUDIO
    TITLE "0:"
    INDEX 01 07:15:01
  TRACK 332 AUDIO
    TITLE "24:cjc023_2332"
    INDEX 01 07:15:73
  TRACK 333 AUDIO
    TITLE "0:"
    INDEX 01 07:16:69
  TRACK 334 AUDIO
    TITLE "25:cjc023_2333"
    INDEX 01 07:17:41
  TRACK 335 AUDIO
    TITLE "0:"
    INDEX 01 07:19:16
  TRACK 336 AUDIO
    TITLE "24:cjc023_2334"
    INDEX 01 07:20:12
  TRACK 337 AUDIO
    TITLE "0:"
    INDEX 01 07:21:33
  TRACK 338 AUDIO
    TITLE "25:cjc023_2335"
    INDEX 01 07:22:03
  TRACK 339 AUDIO
    TITLE "0:"
    INDEX 01 07:24:08
  TRACK 340 AUDIO
    TITLE "25:cjc023_2336"
    INDEX 01 07:24:53
  TRACK 341 AUDIO
    TITLE "0:"
    INDEX 01 07:26:63
  TRACK 342 AUDIO
    TITLE "25:cjc023_2337"
    INDEX 01 07:27:33
  TRACK 343 AUDIO
    TITLE "0:"
    INDEX 01 07:29:15
  TRACK 344 AUDIO
    TITLE "24:cjc023_2338"
    INDEX 01 07:30:10
  TRACK 345 AUDIO
    TITLE "0:"
    INDEX 01 07:31:17
  TRACK 346 AUDIO
    TITLE "25:cjc023_2339"
    INDEX 01 07:31:63
  TRACK 347 AUDIO
    TITLE "0:"
    INDEX 01 07:34:63
  TRACK 348 AUDIO
    TITLE "25:cjc023_2340"
    INDEX 01 07:35:35
  TRACK 349 AUDIO
    TITLE "0:"
    INDEX 01 07:37:63
  TRACK 350 AUDIO
    TITLE "24:cjc023_2341"
    INDEX 01 07:38:61
  TRACK 351 AUDIO
    TITLE "0:"
    INDEX 01 07:39:60
  TRACK 352 AUDIO
    TITLE "25:cjc023_2342"
    INDEX 01 07:40:32
  TRACK 353 AUDIO
    TITLE "0:"
    INDEX 01 07:42:25
  TRACK 354 AUDIO
    TITLE "25:cjc023_2343"
    INDEX 01 07:43:01
  TRACK 355 AUDIO
    TITLE "0:"
    INDEX 01 07:44:63
  TRACK 356 AUDIO
    TITLE "24:cjc023_2344"
    INDEX 01 07:45:61
  TRACK 357 AUDIO
    TITLE "0:"
    INDEX 01 07:47:13
  TRACK 358 AUDIO
    TITLE "25:cjc023_2345"
    INDEX 01 07:47:58
  TRACK 359 AUDIO
    TITLE "0:"
    INDEX 01 07:50:48
  TRACK 360 AUDIO
    TITLE "25:cjc023_2346"
    INDEX 01 07:51:22
  TRACK 361 AUDIO
    TITLE "0:"
    INDEX 01 07:53:43
  TRACK 362 AUDIO
    TITLE "25:cjc023_2347"
    INDEX 01 07:54:18
  TRACK 363 AUDIO
    TITLE "0:"
    INDEX 01 07:57:29
  TRACK 364 AUDIO
    TITLE "24:cjc023_2348"
    INDEX 01 07:58:28
  TRACK 365 AUDIO
    TITLE "0:"
    INDEX 01 07:59:49
  TRACK 366 AUDIO
    TITLE "25:cjc023_2349"
    INDEX 01 08:00:21
  TRACK 367 AUDIO
    TITLE "0:"
    INDEX 01 08:02:12
  TRACK 368 AUDIO
    TITLE "25:cjc023_2350"
    INDEX 01 08:02:61
  TRACK 369 AUDIO
    TITLE "0:"
    INDEX 01 08:04:58
  TRACK 370 AUDIO
    TITLE "24:cjc023_2351"
    INDEX 01 08:05:56
  TRACK 371 AUDIO
    TITLE "0:"
    INDEX 01 08:07:13
  TRACK 372 AUDIO
    TITLE "25:cjc023_2352"
    INDEX 01 08:07:60
  TRACK 373 AUDIO
    TITLE "0:"
    INDEX 01 08:09:57
  TRACK 374 AUDIO
    TITLE "25:cjc023_2353"
    INDEX 01 08:10:29
  TRACK 375 AUDIO
    TITLE "0:"
    INDEX 01 08:12:30
  TRACK 376 AUDIO
    TITLE "24:cjc023_2354"
    INDEX 01 08:13:26
  TRACK 377 AUDIO
    TITLE "0:"
    INDEX 01 08:14:27
  TRACK 378 AUDIO
    TITLE "25:cjc023_2355"
    INDEX 01 08:15:01
  TRACK 379 AUDIO
    TITLE "0:"
    INDEX 01 08:17:65
  TRACK 380 AUDIO
    TITLE "25:cjc023_2356"
    INDEX 01 08:18:41
  TRACK 381 AUDIO
    TITLE "0:"
    INDEX 01 08:20:16
  TRACK 382 AUDIO
    TITLE "24:cjc023_2357"
    INDEX 01 08:21:13
  TRACK 383 AUDIO
    TITLE "0:"
    INDEX 01 08:22:17
  TRACK 384 AUDIO
    TITLE "25:cjc023_2358"
    INDEX 01 08:22:64
  TRACK 385 AUDIO
    TITLE "0:"
    INDEX 01 08:25:58
  TRACK 386 AUDIO
    TITLE "25:cjc023_2359"
    INDEX 01 08:26:30
  TRACK 387 AUDIO
    TITLE "0:"
    INDEX 01 08:28:13
  TRACK 388 AUDIO
    TITLE "25:cjc023_2360"
    INDEX 01 08:28:60
  TRACK 389 AUDIO
    TITLE "0:"
    INDEX 01 08:31:45
  TRACK 390 AUDIO
    TITLE "24:cjc023_2361"
    INDEX 01 08:32:41
  TRACK 391 AUDIO
    TITLE "0:"
    INDEX 01 08:33:42
  TRACK 392 AUDIO
    TITLE "25:cjc023_2362"
    INDEX 01 08:34:16
  TRACK 393 AUDIO
    TITLE "0:"
    INDEX 01 08:35:51
  TRACK 394 AUDIO
    TITLE "25:cjc023_2363"
    INDEX 01 08:36:23
  TRACK 395 AUDIO
    TITLE "0:"
    INDEX 01 08:39:05
  TRACK 396 AUDIO
    TITLE "25:cjc023_2364"
    INDEX 01 08:39:52
  TRACK 397 AUDIO
    TITLE "0:"
    INDEX 01 08:42:04
  TRACK 398 AUDIO
    TITLE "25:cjc023_2365"
    INDEX 01 08:42:51
  TRACK 399 AUDIO
    TITLE "0:"
    INDEX 01 08:45:10
  TRACK 400 AUDIO
    TITLE "24:cjc023_2366"
    INDEX 01 08:46:06
  TRACK 401 AUDIO
    TITLE "0:"
    INDEX 01 08:47:23
  TRACK 402 AUDIO
    TITLE "25:cjc023_2367"
    INDEX 01 08:47:70
  TRACK 403 AUDIO
    TITLE "0:"
    INDEX 01 08:50:03
  TRACK 404 AUDIO
    TITLE "25:cjc023_2368"
    INDEX 01 08:50:50
  TRACK 405 AUDIO
    TITLE "0:"
    INDEX 01 08:53:37
  TRACK 406 AUDIO
    TITLE "25:cjc023_2369"
    INDEX 01 08:54:07
  TRACK 407 AUDIO
    TITLE "0:"
    INDEX 01 08:56:27
  TRACK 408 AUDIO
    TITLE "24:cjc023_2370"
    INDEX 01 08:57:25
  TRACK 409 AUDIO
    TITLE "0:"
    INDEX 01 08:58:30
  TRACK 410 AUDIO
    TITLE "25:cjc023_2371"
    INDEX 01 08:59:02
  TRACK 411 AUDIO
    TITLE "0:"
    INDEX 01 09:00:45
  TRACK 412 AUDIO
    TITLE "25:cjc023_2372"
    INDEX 01 09:01:15
  TRACK 413 AUDIO
    TITLE "0:"
    INDEX 01 09:03:14
  TRACK 414 AUDIO
    TITLE "25:cjc023_2373"
    INDEX 01 09:03:59
  TRACK 415 AUDIO
    TITLE "0:"
    INDEX 01 09:06:06
  TRACK 416 AUDIO
    TITLE "25:cjc023_2374"
    INDEX 01 09:06:53
  TRACK 417 AUDIO
    TITLE "0:"
    INDEX 01 09:09:10
  TRACK 418 AUDIO
    TITLE "25:cjc023_2375"
    INDEX 01 09:09:57
  TRACK 419 AUDIO
    TITLE "0:"
    INDEX 01 09:11:31
  TRACK 420 AUDIO
    TITLE "24:cjc023_2376"
    INDEX 01 09:12:28
  TRACK 421 AUDIO
    TITLE "0:"
    INDEX 01 09:13:45
  TRACK 422 AUDIO
    TITLE "25:cjc023_2377"
    INDEX 01 09:14:18
  TRACK 423 AUDIO
    TITLE "0:"
    INDEX 01 09:17:06
  TRACK 424 AUDIO
    TITLE "25:cjc023_2378"
    INDEX 01 09:17:53
  TRACK 425 AUDIO
    TITLE "0:"
    INDEX 01 09:20:36
  TRACK 426 AUDIO
    TITLE "24:cjc023_2379"
    INDEX 01 09:21:33
  TRACK 427 AUDIO
    TITLE "0:"
    INDEX 01 09:22:44
  TRACK 428 AUDIO
    TITLE "25:cjc023_2380"
    INDEX 01 09:23:15
  TRACK 429 AUDIO
    TITLE "0:"
    INDEX 01 09:25:06
  TRACK 430 AUDIO
    TITLE "25:cjc023_2381"
    INDEX 01 09:25:51
  TRACK 431 AUDIO
    TITLE "0:"
    INDEX 01 09:27:48
  TRACK 432 AUDIO
    TITLE "25:cjc023_2382"
    INDEX 01 09:28:18
  TRACK 433 AUDIO
    TITLE "0:"
    INDEX 01 09:30:07
  TRACK 434 AUDIO
    TITLE "24:cjc023_2383"
    INDEX 01 09:31:04
  TRACK 435 AUDIO
    TITLE "0:"
    INDEX 01 09:32:15
  TRACK 436 AUDIO
    TITLE "25:cjc023_2384"
    INDEX 01 09:32:62
  TRACK 437 AUDIO
    TITLE "0:"
    INDEX 01 09:36:33
  TRACK 438 AUDIO
    TITLE "25:cjc023_2385"
    INDEX 01 09:37:03
  TRACK 439 AUDIO
    TITLE "0:"
    INDEX 01 09:39:15
  TRACK 440 AUDIO
    TITLE "25:cjc023_2386"
    INDEX 01 09:39:61
  TRACK 441 AUDIO
    TITLE "0:"
    INDEX 01 09:42:26
  TRACK 442 AUDIO
    TITLE "24:cjc023_2387"
    INDEX 01 09:43:23
  TRACK 443 AUDIO
    TITLE "0:"
    INDEX 01 09:44:30
  TRACK 444 AUDIO
    TITLE "25:cjc023_2388"
    INDEX 01 09:45:02
  TRACK 445 AUDIO
    TITLE "0:"
    INDEX 01 09:47:70
  TRACK 446 AUDIO
    TITLE "25:cjc023_2389"
    INDEX 01 09:48:46
  TRACK 447 AUDIO
    TITLE "0:"
    INDEX 01 09:50:09
  TRACK 448 AUDIO
    TITLE "24:cjc023_2390"
    INDEX 01 09:51:07
  TRACK 449 AUDIO
    TITLE "0:"
    INDEX 01 09:52:04
  TRACK 450 AUDIO
    TITLE "25:cjc023_2391"
    INDEX 01 09:52:49
  TRACK 451 AUDIO
    TITLE "0:"
    INDEX 01 09:55:24
  TRACK 452 AUDIO
    TITLE "25:cjc023_2392"
    INDEX 01 09:56:00
  TRACK 453 AUDIO
    TITLE "0:"
    INDEX 01 09:57:41
  TRACK 454 AUDIO
    TITLE "25:cjc023_2393"
    INDEX 01 09:58:13
  TRACK 455 AUDIO
    TITLE "0:"
    INDEX 01 09:59:73
  TRACK 456 AUDIO
    TITLE "24:cjc023_2394"
    INDEX 01 10:00:72
  TRACK 457 AUDIO
    TITLE "0:"
    INDEX 01 10:02:03
  TRACK 458 AUDIO
    TITLE "25:cjc023_2395"
    INDEX 01 10:02:48
  TRACK 459 AUDIO
    TITLE "0:"
    INDEX 01 10:04:72
  TRACK 460 AUDIO
    TITLE "25:cjc023_2396"
    INDEX 01 10:05:44
  TRACK 461 AUDIO
    TITLE "0:"
    INDEX 01 10:08:25
  TRACK 462 AUDIO
    TITLE "25:cjc023_2397"
    INDEX 01 10:08:74
  TRACK 463 AUDIO
    TITLE "0:"
    INDEX 01 10:10:61
  TRACK 464 AUDIO
    TITLE "25:cjc023_2398"
    INDEX 01 10:11:37
  TRACK 465 AUDIO
    TITLE "0:"
    INDEX 01 10:13:18
  TRACK 466 AUDIO
    TITLE "25:cjc023_2399"
    INDEX 01 10:13:67
  TRACK 467 AUDIO
    TITLE "0:"
    INDEX 01 10:16:48
  TRACK 468 AUDIO
    TITLE "24:cjc023_2400"
    INDEX 01 10:17:44
  TRACK 469 AUDIO
    TITLE "0:"
    INDEX 01 10:18:55
  TRACK 470 AUDIO
    TITLE "25:cjc023_2401"
    INDEX 01 10:19:25
  TRACK 471 AUDIO
    TITLE "0:"
    INDEX 01 10:21:45
  TRACK 472 AUDIO
    TITLE "25:cjc023_2402"
    INDEX 01 10:22:17
  TRACK 473 AUDIO
    TITLE "0:"
    INDEX 01 10:24:67
  TRACK 474 AUDIO
    TITLE "24:cjc023_2403"
    INDEX 01 10:25:63
  TRACK 475 AUDIO
    TITLE "0:"
    INDEX 01 10:27:13
  TRACK 476 AUDIO
    TITLE "25:cjc023_2404"
    INDEX 01 10:27:62
  TRACK 477 AUDIO
    TITLE "0:"
    INDEX 01 10:30:64
  TRACK 478 AUDIO
    TITLE "25:cjc023_2405"
    INDEX 01 10:31:40
  TRACK 479 AUDIO
    TITLE "0:"
    INDEX 01 10:34:15
  TRACK 480 AUDIO
    TITLE "25:cjc023_2406"
    INDEX 01 10:34:62
  TRACK 481 AUDIO
    TITLE "0:"
    INDEX 01 10:37:34
  TRACK 482 AUDIO
    TITLE "24:cjc023_2407"
    INDEX 01 10:38:34
  TRACK 483 AUDIO
    TITLE "0:"
    INDEX 01 10:39:57
  TRACK 484 AUDIO
    TITLE "25:cjc023_2408"
    INDEX 01 10:40:29
  TRACK 485 AUDIO
    TITLE "0:"
    INDEX 01 10:42:32
  TRACK 486 AUDIO
    TITLE "25:cjc023_2409"
    INDEX 01 10:43:04
  TRACK 487 AUDIO
    TITLE "0:"
    INDEX 01 10:45:30
  TRACK 488 AUDIO
    TITLE "24:cjc023_2410"
    INDEX 01 10:46:30
  TRACK 489 AUDIO
    TITLE "0:"
    INDEX 01 10:47:72
  TRACK 490 AUDIO
    TITLE "25:cjc023_2411"
    INDEX 01 10:48:42
  TRACK 491 AUDIO
    TITLE "0:"
    INDEX 01 10:50:39
  TRACK 492 AUDIO
    TITLE "25:cjc023_2412"
    INDEX 01 10:51:15
  TRACK 493 AUDIO
    TITLE "0:"
    INDEX 01 10:53:24
  TRACK 494 AUDIO
    TITLE "24:cjc023_2413"
    INDEX 01 10:54:23
  TRACK 495 AUDIO
    TITLE "0:"
    INDEX 01 10:55:25
  TRACK 496 AUDIO
    TITLE "25:cjc023_2414"
    INDEX 01 10:55:74
  TRACK 497 AUDIO
    TITLE "0:"
    INDEX 01 10:57:25
  TRACK 498 AUDIO
    TITLE "25:cjc023_2415"
    INDEX 01 10:57:72
  TRACK 499 AUDIO
    TITLE "0:"
    INDEX 01 10:59:56
  TRACK 500 AUDIO
    TITLE "25:cjc023_2416"
    INDEX 01 11:00:26
  TRACK 501 AUDIO
    TITLE "0:"
    INDEX 01 11:03:01
  TRACK 502 AUDIO
    TITLE "25:cjc023_2417"
    INDEX 01 11:03:48
  TRACK 503 AUDIO
    TITLE "0:"
    INDEX 01 11:06:20
  TRACK 504 AUDIO
    TITLE "24:cjc023_2418"
    INDEX 01 11:07:16
  TRACK 505 AUDIO
    TITLE "0:"
    INDEX 01 11:08:25
  TRACK 506 AUDIO
    TITLE "25:cjc023_2419"
    INDEX 01 11:08:70
  TRACK 507 AUDIO
    TITLE "0:"
    INDEX 01 11:11:00
  TRACK 508 AUDIO
    TITLE "24:cjc023_2420"
    INDEX 01 11:11:71
  TRACK 509 AUDIO
    TITLE "0:"
    INDEX 01 11:13:11
  TRACK 510 AUDIO
    TITLE "25:cjc023_2421"
    INDEX 01 11:13:58
  TRACK 511 AUDIO
    TITLE "0:"
    INDEX 01 11:16:42
  TRACK 512 AUDIO
    TITLE "25:cjc023_2422"
    INDEX 01 11:17:14
  TRACK 513 AUDIO
    TITLE "0:"
    INDEX 01 11:19:45
  TRACK 514 AUDIO
    TITLE "25:cjc023_2423"
    INDEX 01 11:20:15
  TRACK 515 AUDIO
    TITLE "0:"
    INDEX 01 11:22:06
  TRACK 516 AUDIO
    TITLE "24:cjc023_2424"
    INDEX 01 11:23:05
  TRACK 517 AUDIO
    TITLE "0:"
    INDEX 01 11:24:18
  TRACK 518 AUDIO
    TITLE "25:cjc023_2425"
    INDEX 01 11:24:69
  TRACK 519 AUDIO
    TITLE "0:"
    INDEX 01 11:27:19
  TRACK 520 AUDIO
    TITLE "25:cjc023_2426"
    INDEX 01 11:27:66
  TRACK 521 AUDIO
    TITLE "0:"
    INDEX 01 11:29:67
  TRACK 522 AUDIO
    TITLE "24:cjc023_2427"
    INDEX 01 11:30:62
  TRACK 523 AUDIO
    TITLE "0:"
    INDEX 01 11:31:63
  TRACK 524 AUDIO
    TITLE "25:cjc023_2428"
    INDEX 01 11:32:43
  TRACK 525 AUDIO
    TITLE "0:"
    INDEX 01 11:34:66
  TRACK 526 AUDIO
    TITLE "25:cjc023_2429"
    INDEX 01 11:35:36
  TRACK 527 AUDIO
    TITLE "0:"
    INDEX 01 11:37:54
  TRACK 528 AUDIO
    TITLE "25:cjc023_2430"
    INDEX 01 11:38:28
  TRACK 529 AUDIO
    TITLE "0:"
    INDEX 01 11:40:15
  TRACK 530 AUDIO
    TITLE "24:cjc023_2431"
    INDEX 01 11:41:11
  TRACK 531 AUDIO
    TITLE "0:"
    INDEX 01 11:42:28
  TRACK 532 AUDIO
    TITLE "25:cjc023_2432"
    INDEX 01 11:42:73
  TRACK 533 AUDIO
    TITLE "0:"
    INDEX 01 11:45:34
  TRACK 534 AUDIO
    TITLE "24:cjc023_2433"
    INDEX 01 11:46:28
  TRACK 535 AUDIO
    TITLE "0:"
    INDEX 01 11:47:39
  TRACK 536 AUDIO
    TITLE "25:cjc023_2434"
    INDEX 01 11:48:13
  TRACK 537 AUDIO
    TITLE "0:"
    INDEX 01 11:50:51
  TRACK 538 AUDIO
    TITLE "25:cjc023_2435"
    INDEX 01 11:51:25
  TRACK 539 AUDIO
    TITLE "0:"
    INDEX 01 11:53:38
  TRACK 540 AUDIO
    TITLE "24:cjc023_2436"
    INDEX 01 11:54:33
  TRACK 541 AUDIO
    TITLE "0:"
    INDEX 01 11:55:58
  TRACK 542 AUDIO
    TITLE "25:cjc023_2437"
    INDEX 01 11:56:42
  TRACK 543 AUDIO
    TITLE "0:"
    INDEX 01 11:58:25
  TRACK 544 AUDIO
    TITLE "25:cjc023_2438"
    INDEX 01 11:58:74
  TRACK 545 AUDIO
    TITLE "0:"
    INDEX 01 12:00:57
  TRACK 546 AUDIO
    TITLE "24:cjc023_2439"
    INDEX 01 12:01:59
  TRACK 547 AUDIO
    TITLE "0:"
    INDEX 01 12:02:72
  TRACK 548 AUDIO
    TITLE "25:cjc023_2440"
    INDEX 01 12:03:42
  TRACK 549 AUDIO
    TITLE "0:"
    INDEX 01 12:06:17
  TRACK 550 AUDIO
    TITLE "24:cjc023_2441"
    INDEX 01 12:07:14
  TRACK 551 AUDIO
    TITLE "0:"
    INDEX 01 12:08:33
  TRACK 552 AUDIO
    TITLE "25:cjc023_2442"
    INDEX 01 12:09:05
  TRACK 553 AUDIO
    TITLE "0:"
    INDEX 01 12:11:00
  TRACK 554 AUDIO
    TITLE "25:cjc023_2443"
    INDEX 01 12:11:51
  TRACK 555 AUDIO
    TITLE "0:"
    INDEX 01 12:13:34
  TRACK 556 AUDIO
    TITLE "24:cjc023_2444"
    INDEX 01 12:14:34
  TRACK 557 AUDIO
    TITLE "0:"
    INDEX 01 12:15:43
  TRACK 558 AUDIO
    TITLE "25:cjc023_2445"
    INDEX 01 12:16:17
  TRACK 559 AUDIO
    TITLE "0:"
    INDEX 01 12:18:04
  TRACK 560 AUDIO
    TITLE "25:cjc023_2446"
    INDEX 01 12:18:53
  TRACK 561 AUDIO
    TITLE "0:"
    INDEX 01 12:20:48
  TRACK 562 AUDIO
    TITLE "24:cjc023_2447"
    INDEX 01 12:21:48
  TRACK 563 AUDIO
    TITLE "0:"
    INDEX 01 12:22:63
  TRACK 564 AUDIO
    TITLE "25:cjc023_2448"
    INDEX 01 12:23:45
  TRACK 565 AUDIO
    TITLE "0:"
    INDEX 01 12:26:04
  TRACK 566 AUDIO
    TITLE "25:cjc023_2449"
    INDEX 01 12:26:51
  TRACK 567 AUDIO
    TITLE "0:"
    INDEX 01 12:28:54
  TRACK 568 AUDIO
    TITLE "25:cjc023_2450"
    INDEX 01 12:29:26
  TRACK 569 AUDIO
    TITLE "0:"
    INDEX 01 12:31:19
  TRACK 570 AUDIO
    TITLE "24:cjc023_2451"
    INDEX 01 12:32:16
  TRACK 571 AUDIO
    TITLE "0:"
    INDEX 01 12:33:43
  TRACK 572 AUDIO
    TITLE "25:cjc023_2452"
    INDEX 01 12:34:13
  TRACK 573 AUDIO
    TITLE "0:"
    INDEX 01 12:36:22
  TRACK 574 AUDIO
    TITLE "25:cjc023_2453"
    INDEX 01 12:36:69
  TRACK 575 AUDIO
    TITLE "0:"
    INDEX 01 12:39:51
  TRACK 576 AUDIO
    TITLE "25:cjc023_2454"
    INDEX 01 12:40:24
  TRACK 577 AUDIO
    TITLE "0:"
    INDEX 01 12:42:24
  TRACK 578 AUDIO
    TITLE "24:cjc023_2455"
    INDEX 01 12:43:24
  TRACK 579 AUDIO
    TITLE "0:"
    INDEX 01 12:44:55
  TRACK 580 AUDIO
    TITLE "25:cjc023_2456"
    INDEX 01 12:45:27
  TRACK 581 AUDIO
    TITLE "0:"
    INDEX 01 12:47:27
  TRACK 582 AUDIO
    TITLE "25:cjc023_2457"
    INDEX 01 12:48:00
  TRACK 583 AUDIO
    TITLE "0:"
    INDEX 01 12:51:00
  TRACK 584 AUDIO
    TITLE "24:cjc023_2458"
    INDEX 01 12:51:72
  TRACK 585 AUDIO
    TITLE "0:"
    INDEX 01 12:53:03
  TRACK 586 AUDIO
    TITLE "25:cjc023_2459"
    INDEX 01 12:53:48
  TRACK 587 AUDIO
    TITLE "0:"
    INDEX 01 12:55:52
  TRACK 588 AUDIO
    TITLE "24:cjc023_2460"
    INDEX 01 12:56:48
  TRACK 589 AUDIO
    TITLE "0:"
    INDEX 01 12:57:61
  TRACK 590 AUDIO
    TITLE "25:cjc023_2461"
    INDEX 01 12:58:33
  TRACK 591 AUDIO
    TITLE "0:"
    INDEX 01 13:00:28
  TRACK 592 AUDIO
    TITLE "25:cjc023_2462"
    INDEX 01 13:00:73
  TRACK 593 AUDIO
    TITLE "0:"
    INDEX 01 13:03:52
  TRACK 594 AUDIO
    TITLE "25:cjc023_2463"
    INDEX 01 13:04:24
  TRACK 595 AUDIO
    TITLE "0:"
    INDEX 01 13:05:72
  TRACK 596 AUDIO
    TITLE "24:cjc023_2464"
    INDEX 01 13:06:72
  TRACK 597 AUDIO
    TITLE "0:"
    INDEX 01 13:07:67
  TRACK 598 AUDIO
    TITLE "25:cjc023_2465"
    INDEX 01 13:08:39
  TRACK 599 AUDIO
    TITLE "0:"
    INDEX 01 13:10:68
  TRACK 600 AUDIO
    TITLE "24:cjc023_2466"
    INDEX 01 13:11:65
  TRACK 601 AUDIO
    TITLE "0:"
    INDEX 01 13:12:67
  TRACK 602 AUDIO
    TITLE "25:cjc023_2467"
    INDEX 01 13:13:39
  TRACK 603 AUDIO
    TITLE "0:"
    INDEX 01 13:16:33
  TRACK 604 AUDIO
    TITLE "25:cjc023_2468"
    INDEX 01 13:17:05
  TRACK 605 AUDIO
    TITLE "0:"
    INDEX 01 13:18:30
  TRACK 606 AUDIO
    TITLE "25:cjc023_2469"
    INDEX 01 13:19:02
  TRACK 607 AUDIO
    TITLE "0:"
    INDEX 01 13:21:50
  TRACK 608 AUDIO
    TITLE "24:cjc023_2470"
    INDEX 01 13:22:45
  TRACK 609 AUDIO
    TITLE "0:"
    INDEX 01 13:23:61
  TRACK 610 AUDIO
    TITLE "25:cjc023_2471"
    INDEX 01 13:24:31
  TRACK 611 AUDIO
    TITLE "0:"
    INDEX 01 13:27:03
  TRACK 612 AUDIO
    TITLE "25:cjc023_2472"
    INDEX 01 13:27:49
  TRACK 613 AUDIO
    TITLE "0:"
    INDEX 01 13:31:09
  TRACK 614 AUDIO
    TITLE "25:cjc023_2473"
    INDEX 01 13:31:58
  TRACK 615 AUDIO
    TITLE "0:"
    INDEX 01 13:34:09
  TRACK 616 AUDIO
    TITLE "24:cjc023_2474"
    INDEX 01 13:35:03
  TRACK 617 AUDIO
    TITLE "0:"
    INDEX 01 13:36:02
  TRACK 618 AUDIO
    TITLE "25:cjc023_2475"
    INDEX 01 13:36:48
  TRACK 619 AUDIO
    TITLE "0:"
    INDEX 01 13:39:01
